<?xml version="1.0" encoding="UTF-8" standalone="no"?>
<!-- Created with Inkscape (http://www.inkscape.org/) -->

<svg
   xmlns:a="http://ns.adobe.com/AdobeSVGViewerExtensions/3.0/"
   xmlns:dc="http://purl.org/dc/elements/1.1/"
   xmlns:cc="http://creativecommons.org/ns#"
   xmlns:rdf="http://www.w3.org/1999/02/22-rdf-syntax-ns#"
   xmlns:svg="http://www.w3.org/2000/svg"
   xmlns="http://www.w3.org/2000/svg"
   xmlns:xlink="http://www.w3.org/1999/xlink"
   version="1.0"
   width="48"
   height="48"
   viewBox="0 0 256 256"
   id="svg153"
   xml:space="preserve"
   style="display:inline;overflow:visible"><metadata
   id="metadata50"><rdf:RDF><cc:Work
       rdf:about=""><dc:format>image/svg+xml</dc:format><dc:type
         rdf:resource="http://purl.org/dc/dcmitype/StillImage" /><dc:title></dc:title><cc:license
         rdf:resource="http://creativecommons.org/licenses/publicdomain/" /></cc:Work><cc:License
       rdf:about="http://creativecommons.org/licenses/publicdomain/"><cc:permits
         rdf:resource="http://creativecommons.org/ns#Reproduction" /><cc:permits
         rdf:resource="http://creativecommons.org/ns#Distribution" /><cc:permits
         rdf:resource="http://creativecommons.org/ns#DerivativeWorks" /></cc:License></rdf:RDF></metadata>
  <defs
   id="defs222"><linearGradient
     id="linearGradient3682"><stop
       id="stop3684"
       style="stop-color:#5be3ff;stop-opacity:1"
       offset="0" /><stop
       id="stop3686"
       style="stop-color:#dce3f0;stop-opacity:1"
       offset="1" /></linearGradient><radialGradient
     cx="-95.178703"
     cy="452"
     r="84.679703"
     fx="-95.178703"
     fy="452"
     id="XMLID_4_"
     gradientUnits="userSpaceOnUse"
     gradientTransform="matrix(1.1009,0,0,-1.0433,241.2153,627.9246)">
      <stop
   id="stop184"
   style="stop-color:#5a5a5a;stop-opacity:1"
   offset="0" />
      
      <stop
   id="stop186"
   style="stop-color:#161a26;stop-opacity:1"
   offset="1" />
      <a:midPointStop
   offset="0"
   style="stop-color:#DDDDE8"
   id="midPointStop187" />
      <a:midPointStop
   offset="0.5"
   style="stop-color:#DDDDE8"
   id="midPointStop188" />
      <a:midPointStop
   offset="0.3034"
   style="stop-color:#C6C9DB"
   id="midPointStop189" />
      <a:midPointStop
   offset="0.5"
   style="stop-color:#C6C9DB"
   id="midPointStop190" />
      <a:midPointStop
   offset="1"
   style="stop-color:#9497BB"
   id="midPointStop191" />
    </radialGradient><linearGradient
     x1="34.316757"
     y1="113.29916"
     x2="226.92059"
     y2="88.786133"
     id="linearGradient3712"
     xlink:href="#linearGradient3682"
     gradientUnits="userSpaceOnUse"
     gradientTransform="matrix(0,-0.1875,0.1875,0,-0.17639151,48.227706)" /><radialGradient
     cx="110.8556"
     cy="277.61804"
     r="113.10577"
     fx="110.8556"
     fy="277.61804"
     id="radialGradient3714"
     xlink:href="#XMLID_4_"
     gradientUnits="userSpaceOnUse"
     gradientTransform="matrix(-0.61145911,1.6371646,-2.2711026,-0.8482264,713.32821,71.413297)"
     spreadMethod="pad" /></defs>
  
  
  <path
   d=""
   id="path218"
   style="stroke:none" />
<g
   id="layer2"
   style="display:inline"><g
     transform="translate(-0.13683479,-1.0775946)"
     id="g3707"><path
       d="m 15.059245,46.047765 c 0.04283,0.612933 0.190811,1.339296 0.5,2 2.175627,4.649088 6.631563,4.296069 11.166667,2.333333 1.554496,20.155776 5.822287,42.873845 14.333333,55.500002 -0.151654,0.1317 -0.349518,0.2001 -0.5,0.33333 -32.0244296,28.35209 -30.7475683,78.9191 -2.166667,107.5 33.185339,33.18534 90.261082,34.53115 133.833332,11 l 13.5,7.66667 c 2.05275,1.1977 4.79893,0.96281 6.5,-0.66667 l 23.16667,-22.16667 c 1.69454,-1.63574 1.91219,-4.3594 0.66666,-6.33333 l -8,-12.83333 c 6.98268,-10.66505 11.8784,-22.21664 14.66667,-34.16667 l 14.33333,-3.66667 c 2.30318,-0.57203 3.996,-2.71257 4,-5 l 0.16667,-31.16666 c 0.003,-2.31347 -1.83015,-4.44857 -4.16667,-5 l -14.33333,-3.5 C 219.92425,96.005898 214.99546,84.638244 208.05924,74.047764 l 8,-12.999999 c 1.22991,-1.968011 1.01318,-4.701611 -0.66666,-6.333334 l -23.16667,-22 c -1.69344,-1.639018 -4.44057,-2.023413 -6.5,-0.833333 l -13.33333,7.666667 C 126.79727,14.181194 70.608866,7.6776422 24.559245,35.714431 c -4.172017,2.888 -9.799725,6.042784 -9.5,10.333334 z"
       id="path3692"
       style="font-size:medium;font-style:normal;font-variant:normal;font-weight:normal;font-stretch:normal;text-indent:0;text-align:start;text-decoration:none;line-height:normal;letter-spacing:normal;word-spacing:normal;text-transform:none;direction:ltr;block-progression:tb;writing-mode:lr-tb;text-anchor:start;color:#000000;fill:none;stroke:#000000;stroke-width:16;stroke-linecap:butt;stroke-linejoin:miter;stroke-miterlimit:4;stroke-opacity:1;stroke-dasharray:none;stroke-dashoffset:0;marker:none;visibility:visible;display:inline;overflow:visible;enable-background:accumulate;font-family:Bitstream Vera Sans;-inkscape-font-specification:Bitstream Vera Sans" /><path
       d="m 14.6875,7.3125 c -3.177438,-0.041412 -6.4021232,0.6282221 -9.34375,2 -0.1039225,0.054921 -0.2086506,0.078884 -0.3125,0.125 0.2913538,3.777728 1.0616819,8.038286 2.65625,10.40625 4.56654,-3.967463 11.960721,-4.291102 16.15625,0.625 3.120231,3.656121 3.306859,9.628195 -0.75,12.90625 C 20.18792,35.722993 15.533482,35.803848 13.03125,32.5 12.167434,31.359451 11.716862,29.975479 11.8125,28.5625 11.90814,27.149521 12.644126,25.680589 14,24.75 c 0.850384,-0.781264 2.373551,-0.604921 3.03125,0.34375 0.657699,0.948671 0.281962,2.449399 -0.75,2.96875 -0.264227,0.181346 -0.317104,0.418848 -0.34375,0.8125 -0.02665,0.393652 0.03701,0.833765 0.28125,1.15625 0.945821,1.248823 3.049949,1.232927 4.34375,0.1875 2.088915,-1.687903 1.983116,-5.02636 0.21875,-7.09375 -2.602767,-3.049783 -7.452886,-2.829857 -10.4375,-0.1875 -4.1584462,3.681587 -3.9200506,10.309072 -0.21875,14.34375 4.952079,5.398119 13.721384,5.019859 18.96875,0.09375 6.807872,-6.39108 6.196259,-17.465927 -0.15625,-24.0625 -3.761441,-3.9059555 -8.954271,-5.9309802 -14.25,-6 z"
       transform="scale(5.3333333,5.3333333)"
       id="path3623"
       style="fill:url(#linearGradient3712);fill-opacity:1;fill-rule:evenodd;stroke:#0fd4ff;stroke-width:0.5;stroke-linejoin:round;stroke-miterlimit:4;stroke-opacity:1;stroke-dasharray:none;display:inline;overflow:visible" /><path
       d="m 241.25702,116.40359 -0.16938,31.10883 c -0.004,2.28743 -1.76186,4.47705 -4.06504,5.04908 l -14.22764,3.58321 c -2.78827,11.95002 -7.75309,23.53837 -14.73577,34.20343 l 7.9607,12.867 c 1.24553,1.97392 1.01704,4.71631 -0.6775,6.35206 l -23.03523,22.15079 c -1.70107,1.62948 -4.55295,1.84919 -6.6057,0.65149 l -13.55013,-7.65505 C 128.57908,248.24558 71.529075,246.82438 38.343735,213.63904 9.7628333,185.05813 8.5212053,134.49466 40.545635,106.14257 c 24.31784,-21.52924 64.038745,-23.28468 86.551495,3.09459 16.64123,19.49931 17.74092,51.24963 -3.89566,68.73259 -15.49776,12.52263 -40.347185,13.06007 -53.692425,-4.56045 -4.60702,-6.08293 -6.94638,-13.47479 -6.43631,-21.01068 0.51008,-7.53589 4.28628,-15.39603 11.51761,-20.35917 4.53538,-4.16674 12.71289,-3.25898 16.22062,1.8006 3.50773,5.05958 1.47831,13.01986 -4.02549,15.78973 -1.40921,0.96718 -1.72104,2.2981 -1.86315,4.39758 -0.14211,2.09948 0.22179,4.46927 1.52439,6.18919 5.04438,6.66039 16.304345,6.55285 23.204615,0.97724 11.14088,-9.00215 10.59559,-26.76056 1.18564,-37.78664 -13.881425,-16.26551 -39.807005,-15.23268 -55.724945,-1.14011 -22.17838,19.63513 -20.9259,55.03223 -1.18563,76.55051 26.41109,28.78997 73.301315,26.7612 101.287265,0.48862 C 191.52231,165.22041 188.24683,106.14362 154.36678,70.9619 122.26915,37.63108 70.356355,30.11575 28.519885,49.62548 c -5.16482,2.72949 -10.47245,3.6569 -12.94596,-1.62873 -2.47351,-5.28565 4.27729,-8.96604 9.04531,-12.26661 C 70.668855,7.69335 126.7254,14.16076 172.32071,39.52733 l 13.38076,-7.65505 c 2.05943,-1.19008 4.91225,-0.82466 6.60569,0.81436 l 23.03523,21.98792 c 1.67984,1.63172 1.90741,4.38405 0.6775,6.35206 l -7.9607,13.02987 c 6.93622,10.59048 11.93411,22.00248 14.73577,33.87768 l 14.22764,3.42034 c 2.33651,0.55143 4.23774,2.73561 4.23442,5.04908 z"
       id="path2432"
       style="font-size:medium;font-style:normal;font-variant:normal;font-weight:normal;font-stretch:normal;text-indent:0;text-align:start;text-decoration:none;line-height:normal;letter-spacing:normal;word-spacing:normal;text-transform:none;direction:ltr;block-progression:tb;writing-mode:lr-tb;text-anchor:start;color:#000000;fill:url(#radialGradient3714);fill-opacity:1;fill-rule:evenodd;stroke:none;stroke-width:2.66666675;marker:none;visibility:visible;display:inline;overflow:visible;enable-background:accumulate;font-family:Bitstream Vera Sans;-inkscape-font-specification:Bitstream Vera Sans" /></g></g></svg>